<?xml version="1.0" encoding="utf-8"?><svg xmlns="http://www.w3.org/2000/svg" xmlns:xlink="http://www.w3.org/1999/xlink"><symbol class="alucide alucide-arrow-left" fill="none" stroke="currentColor" stroke-width="2" stroke-linecap="round" stroke-linejoin="round" viewBox="0 0 24 24" id="arrow-left" xmlns="http://www.w3.org/2000/svg"><path d="M19 12H5M12 19l-7-7 7-7"/></symbol><symbol class="blucide blucide-arrow-right" fill="none" stroke="currentColor" stroke-width="2" stroke-linecap="round" stroke-linejoin="round" viewBox="0 0 24 24" id="arrow-right" xmlns="http://www.w3.org/2000/svg"><path d="M5 12h14M12 5l7 7-7 7"/></symbol><symbol class="clucide clucide-building-2" fill="none" stroke="currentColor" stroke-width="2" stroke-linecap="round" stroke-linejoin="round" viewBox="0 0 24 24" id="building-2" xmlns="http://www.w3.org/2000/svg"><path d="M10 12h4M10 8h4M14 21v-3a2 2 0 0 0-4 0v3"/><path d="M6 10H4a2 2 0 0 0-2 2v7a2 2 0 0 0 2 2h16a2 2 0 0 0 2-2V9a2 2 0 0 0-2-2h-2"/><path d="M6 21V5a2 2 0 0 1 2-2h8a2 2 0 0 1 2 2v16"/></symbol><symbol class="dlucide dlucide-camera" fill="none" stroke="currentColor" stroke-width="2" stroke-linecap="round" stroke-linejoin="round" viewBox="0 0 24 24" id="camera" xmlns="http://www.w3.org/2000/svg"><path d="M13.997 4a2 2 0 0 1 1.76 1.05l.486.9A2 2 0 0 0 18.003 7H20a2 2 0 0 1 2 2v9a2 2 0 0 1-2 2H4a2 2 0 0 1-2-2V9a2 2 0 0 1 2-2h1.997a2 2 0 0 0 1.759-1.048l.489-.904A2 2 0 0 1 10.004 4z"/><circle cx="12" cy="13" r="3"/></symbol><symbol fill="none" stroke="currentColor" stroke-width="2" stroke-linecap="round" stroke-linejoin="round" viewBox="0 0 24 24" id="check" xmlns="http://www.w3.org/2000/svg"><path d="M20 6 9 17l-5-5"/></symbol><symbol class="flucide flucide-chevron-right" fill="none" stroke="currentColor" stroke-width="2" stroke-linecap="round" stroke-linejoin="round" viewBox="0 0 24 24" id="chevron-right" xmlns="http://www.w3.org/2000/svg"><path d="m9 18 6-6-6-6"/></symbol><symbol fill="none" stroke="currentColor" stroke-width="2" stroke-linecap="round" stroke-linejoin="round" viewBox="0 0 24 24" id="circle-alert" xmlns="http://www.w3.org/2000/svg"><circle cx="12" cy="12" r="10"/><path d="M12 8v4M12 16h.01"/></symbol><symbol class="hlucide hlucide-clipboard-check" fill="none" stroke="currentColor" stroke-width="2" stroke-linecap="round" stroke-linejoin="round" viewBox="0 0 24 24" id="clipboard-check" xmlns="http://www.w3.org/2000/svg"><rect width="8" height="4" x="8" y="2" rx="1" ry="1"/><path d="M16 4h2a2 2 0 0 1 2 2v14a2 2 0 0 1-2 2H6a2 2 0 0 1-2-2V6a2 2 0 0 1 2-2h2"/><path d="m9 14 2 2 4-4"/></symbol><symbol class="ilucide ilucide-clipboard-paste" fill="none" stroke="currentColor" stroke-width="2" stroke-linecap="round" stroke-linejoin="round" viewBox="0 0 24 24" id="clipboard-paste" xmlns="http://www.w3.org/2000/svg"><path d="M9 3H5a2 2 0 0 0-2 2v14a2 2 0 0 0 2 2h14a2 2 0 0 0 2-2v-4"/><path d="M9 3v4h4V3M9 3h6M20 15h-7M14 10l5 5-5 5"/></symbol><symbol class="jlucide jlucide-door-closed" fill="none" stroke="currentColor" stroke-width="2" stroke-linecap="round" stroke-linejoin="round" viewBox="0 0 24 24" id="door-closed" xmlns="http://www.w3.org/2000/svg"><path d="M10 12h.01M18 20V6a2 2 0 0 0-2-2H8a2 2 0 0 0-2 2v14M2 20h20"/></symbol><symbol class="klucide klucide-droplet-off" fill="none" stroke="currentColor" stroke-width="2" stroke-linecap="round" stroke-linejoin="round" viewBox="0 0 24 24" id="droplet-off" xmlns="http://www.w3.org/2000/svg"><path d="M18.715 13.186C18.29 11.858 17.384 10.607 16 9.5c-2-1.6-3.5-4-4-6.5a10.7 10.7 0 0 1-.884 2.586M2 2l20 20M8.795 8.797A11 11 0 0 1 8 9.5C6 11.1 5 13 5 15a7 7 0 0 0 13.222 3.208"/></symbol><symbol class="llucide llucide-house" fill="none" stroke="currentColor" stroke-width="2" stroke-linecap="round" stroke-linejoin="round" viewBox="0 0 24 24" id="house" xmlns="http://www.w3.org/2000/svg"><path d="M15 21v-8a1 1 0 0 0-1-1h-4a1 1 0 0 0-1 1v8"/><path d="M3 10a2 2 0 0 1 .709-1.528l7-5.999a2 2 0 0 1 2.582 0l7 5.999A2 2 0 0 1 21 10v9a2 2 0 0 1-2 2H5a2 2 0 0 1-2-2z"/></symbol><symbol class="mlucide mlucide-key-round" fill="none" stroke="currentColor" stroke-width="2" stroke-linecap="round" stroke-linejoin="round" viewBox="0 0 24 24" id="key-round" xmlns="http://www.w3.org/2000/svg"><path d="M2.586 17.414A2 2 0 0 0 2 18.828V21a1 1 0 0 0 1 1h3a1 1 0 0 0 1-1v-1a1 1 0 0 1 1-1h1a1 1 0 0 0 1-1v-1a1 1 0 0 1 1-1h.172a2 2 0 0 0 1.414-.586l.814-.814a6.5 6.5 0 1 0-4-4z"/><circle cx="16.5" cy="7.5" r=".5" fill="currentColor"/></symbol><symbol class="nlucide nlucide-list-checks" fill="none" stroke="currentColor" stroke-width="2" stroke-linecap="round" stroke-linejoin="round" viewBox="0 0 24 24" id="list-checks" xmlns="http://www.w3.org/2000/svg"><path d="M13 5h8M13 12h8M13 19h8M3 17l2 2 4-4M3 7l2 2 4-4"/></symbol><symbol fill="none" stroke="currentColor" stroke-width="2" stroke-linecap="round" stroke-linejoin="round" viewBox="0 0 24 24" id="loader-circle" xmlns="http://www.w3.org/2000/svg"><path d="M21 12a9 9 0 1 1-6.219-8.56"/></symbol><symbol class="plucide plucide-map-pin" fill="none" stroke="currentColor" stroke-width="2" stroke-linecap="round" stroke-linejoin="round" viewBox="0 0 24 24" id="map-pin" xmlns="http://www.w3.org/2000/svg"><path d="M20 10c0 4.993-5.539 10.193-7.399 11.799a1 1 0 0 1-1.202 0C9.539 20.193 4 14.993 4 10a8 8 0 0 1 16 0"/><circle cx="12" cy="10" r="3"/></symbol><symbol class="qlucide qlucide-megaphone" fill="none" stroke="currentColor" stroke-width="2" stroke-linecap="round" stroke-linejoin="round" viewBox="0 0 24 24" id="megaphone" xmlns="http://www.w3.org/2000/svg"><path d="M11 6a13 13 0 0 0 8.4-2.8A1 1 0 0 1 21 4v12a1 1 0 0 1-1.6.8A13 13 0 0 0 11 14H5a2 2 0 0 1-2-2V8a2 2 0 0 1 2-2z"/><path d="M6 14a12 12 0 0 0 2.4 7.2 2 2 0 0 0 3.2-2.4A8 8 0 0 1 10 14M8 6v8"/></symbol><symbol class="rlucide rlucide-message-circle" fill="none" stroke="currentColor" stroke-width="2" stroke-linecap="round" stroke-linejoin="round" viewBox="0 0 24 24" id="message-circle" xmlns="http://www.w3.org/2000/svg"><path d="M2.992 16.342a2 2 0 0 1 .094 1.167l-1.065 3.29a1 1 0 0 0 1.236 1.168l3.413-.998a2 2 0 0 1 1.099.092 10 10 0 1 0-4.777-4.719"/></symbol><symbol class="slucide slucide-phone" fill="none" stroke="currentColor" stroke-width="2" stroke-linecap="round" stroke-linejoin="round" viewBox="0 0 24 24" id="phone" xmlns="http://www.w3.org/2000/svg"><path d="M13.832 16.568a1 1 0 0 0 1.213-.303l.355-.465A2 2 0 0 1 17 15h3a2 2 0 0 1 2 2v3a2 2 0 0 1-2 2A18 18 0 0 1 2 4a2 2 0 0 1 2-2h3a2 2 0 0 1 2 2v3a2 2 0 0 1-.8 1.6l-.468.351a1 1 0 0 0-.292 1.233 14 14 0 0 0 6.392 6.384"/></symbol><symbol class="tlucide tlucide-shield-check" fill="none" stroke="currentColor" stroke-width="2" stroke-linecap="round" stroke-linejoin="round" viewBox="0 0 24 24" id="shield-check" xmlns="http://www.w3.org/2000/svg"><path d="M20 13c0 5-3.5 7.5-7.66 8.95a1 1 0 0 1-.67-.01C7.5 20.5 4 18 4 13V6a1 1 0 0 1 1-1c2 0 4.5-1.2 6.24-2.72a1.17 1.17 0 0 1 1.52 0C14.51 3.81 17 5 19 5a1 1 0 0 1 1 1z"/><path d="m9 12 2 2 4-4"/></symbol><symbol class="ulucide ulucide-user" fill="none" stroke="currentColor" stroke-width="2" stroke-linecap="round" stroke-linejoin="round" viewBox="0 0 24 24" id="user" xmlns="http://www.w3.org/2000/svg"><path d="M19 21v-2a4 4 0 0 0-4-4H9a4 4 0 0 0-4 4v2"/><circle cx="12" cy="7" r="4"/></symbol><symbol class="vlucide vlucide-zap" fill="none" stroke="currentColor" stroke-width="2" stroke-linecap="round" stroke-linejoin="round" viewBox="0 0 24 24" id="zap" xmlns="http://www.w3.org/2000/svg"><path d="M4 14a1 1 0 0 1-.78-1.63l9.9-10.2a.5.5 0 0 1 .86.46l-1.92 6.02A1 1 0 0 0 13 10h7a1 1 0 0 1 .78 1.63l-9.9 10.2a.5.5 0 0 1-.86-.46l1.92-6.02A1 1 0 0 0 11 14z"/></symbol></svg>