<?xml version="1.0" encoding="utf-8"?><svg xmlns="http://www.w3.org/2000/svg" xmlns:xlink="http://www.w3.org/1999/xlink"><symbol class="aalucide aalucide-arrow-left" fill="none" stroke="currentColor" stroke-width="2" stroke-linecap="round" stroke-linejoin="round" viewBox="0 0 24 24" id="arrow-left" xmlns="http://www.w3.org/2000/svg"><path d="m12 19-7-7 7-7M19 12H5"/></symbol><symbol class="ablucide ablucide-arrow-right" fill="none" stroke="currentColor" stroke-width="2" stroke-linecap="round" stroke-linejoin="round" viewBox="0 0 24 24" id="arrow-right" xmlns="http://www.w3.org/2000/svg"><path d="M5 12h14M12 5l7 7-7 7"/></symbol><symbol class="aclucide aclucide-ban" fill="none" stroke="currentColor" stroke-width="2" stroke-linecap="round" stroke-linejoin="round" viewBox="0 0 24 24" id="ban" xmlns="http://www.w3.org/2000/svg"><circle cx="12" cy="12" r="10"/><path d="m4.9 4.9 14.2 14.2"/></symbol><symbol class="adlucide adlucide-bell" fill="none" stroke="currentColor" stroke-width="2" stroke-linecap="round" stroke-linejoin="round" viewBox="0 0 24 24" id="bell" xmlns="http://www.w3.org/2000/svg"><path d="M10.268 21a2 2 0 0 0 3.464 0M3.262 15.326A1 1 0 0 0 4 17h16a1 1 0 0 0 .74-1.673C19.41 13.956 18 12.499 18 8A6 6 0 0 0 6 8c0 4.499-1.411 5.956-2.738 7.326"/></symbol><symbol class="aelucide aelucide-building-2" fill="none" stroke="currentColor" stroke-width="2" stroke-linecap="round" stroke-linejoin="round" viewBox="0 0 24 24" id="building-2" xmlns="http://www.w3.org/2000/svg"><path d="M10 12h4M10 8h4M14 21v-3a2 2 0 0 0-4 0v3"/><path d="M6 10H4a2 2 0 0 0-2 2v7a2 2 0 0 0 2 2h16a2 2 0 0 0 2-2V9a2 2 0 0 0-2-2h-2"/><path d="M6 21V5a2 2 0 0 1 2-2h8a2 2 0 0 1 2 2v16"/></symbol><symbol class="aflucide aflucide-calendar" fill="none" stroke="currentColor" stroke-width="2" stroke-linecap="round" stroke-linejoin="round" viewBox="0 0 24 24" id="calendar" xmlns="http://www.w3.org/2000/svg"><path d="M8 2v4M16 2v4"/><rect width="18" height="18" x="3" y="4" rx="2"/><path d="M3 10h18"/></symbol><symbol class="aglucide aglucide-calendar-clock" fill="none" stroke="currentColor" stroke-width="2" stroke-linecap="round" stroke-linejoin="round" viewBox="0 0 24 24" id="calendar-clock" xmlns="http://www.w3.org/2000/svg"><path d="M21 7.5V6a2 2 0 0 0-2-2H5a2 2 0 0 0-2 2v14a2 2 0 0 0 2 2h3.5M16 2v4M8 2v4M3 10h5M17.5 17.5 16 16.3V14"/><circle cx="16" cy="16" r="6"/></symbol><symbol class="ahlucide ahlucide-camera" fill="none" stroke="currentColor" stroke-width="2" stroke-linecap="round" stroke-linejoin="round" viewBox="0 0 24 24" id="camera" xmlns="http://www.w3.org/2000/svg"><path d="M13.997 4a2 2 0 0 1 1.76 1.05l.486.9A2 2 0 0 0 18.003 7H20a2 2 0 0 1 2 2v9a2 2 0 0 1-2 2H4a2 2 0 0 1-2-2V9a2 2 0 0 1 2-2h1.997a2 2 0 0 0 1.759-1.048l.489-.904A2 2 0 0 1 10.004 4z"/><circle cx="12" cy="13" r="3"/></symbol><symbol class="ailucide ailucide-check" fill="none" stroke="currentColor" stroke-width="2" stroke-linecap="round" stroke-linejoin="round" viewBox="0 0 24 24" id="check" xmlns="http://www.w3.org/2000/svg"><path d="M20 6 9 17l-5-5"/></symbol><symbol class="ajlucide ajlucide-chevron-down" fill="none" stroke="currentColor" stroke-width="2" stroke-linecap="round" stroke-linejoin="round" viewBox="0 0 24 24" id="chevron-down" xmlns="http://www.w3.org/2000/svg"><path d="m6 9 6 6 6-6"/></symbol><symbol class="aklucide aklucide-chevron-right" fill="none" stroke="currentColor" stroke-width="2" stroke-linecap="round" stroke-linejoin="round" viewBox="0 0 24 24" id="chevron-right" xmlns="http://www.w3.org/2000/svg"><path d="m9 18 6-6-6-6"/></symbol><symbol class="allucide allucide-chevron-up" fill="none" stroke="currentColor" stroke-width="2" stroke-linecap="round" stroke-linejoin="round" viewBox="0 0 24 24" id="chevron-up" xmlns="http://www.w3.org/2000/svg"><path d="m18 15-6-6-6 6"/></symbol><symbol class="amlucide amlucide-circle-alert" fill="none" stroke="currentColor" stroke-width="2" stroke-linecap="round" stroke-linejoin="round" viewBox="0 0 24 24" id="circle-alert" xmlns="http://www.w3.org/2000/svg"><circle cx="12" cy="12" r="10"/><path d="M12 8v4M12 16h.01"/></symbol><symbol class="anlucide anlucide-circle-check" fill="none" stroke="currentColor" stroke-width="2" stroke-linecap="round" stroke-linejoin="round" viewBox="0 0 24 24" id="circle-check" xmlns="http://www.w3.org/2000/svg"><circle cx="12" cy="12" r="10"/><path d="m9 12 2 2 4-4"/></symbol><symbol class="aolucide aolucide-circle-check-big" fill="none" stroke="currentColor" stroke-width="2" stroke-linecap="round" stroke-linejoin="round" viewBox="0 0 24 24" id="circle-check-big" xmlns="http://www.w3.org/2000/svg"><path d="M21.801 10A10 10 0 1 1 17 3.335"/><path d="m9 11 3 3L22 4"/></symbol><symbol class="aplucide aplucide-circle-x" fill="none" stroke="currentColor" stroke-width="2" stroke-linecap="round" stroke-linejoin="round" viewBox="0 0 24 24" id="circle-x" xmlns="http://www.w3.org/2000/svg"><circle cx="12" cy="12" r="10"/><path d="m15 9-6 6M9 9l6 6"/></symbol><symbol class="aqlucide aqlucide-clipboard-check" fill="none" stroke="currentColor" stroke-width="2" stroke-linecap="round" stroke-linejoin="round" viewBox="0 0 24 24" id="clipboard-check" xmlns="http://www.w3.org/2000/svg"><rect width="8" height="4" x="8" y="2" rx="1" ry="1"/><path d="M16 4h2a2 2 0 0 1 2 2v14a2 2 0 0 1-2 2H6a2 2 0 0 1-2-2V6a2 2 0 0 1 2-2h2"/><path d="m9 14 2 2 4-4"/></symbol><symbol class="arlucide arlucide-clipboard-list" fill="none" stroke="currentColor" stroke-width="2" stroke-linecap="round" stroke-linejoin="round" viewBox="0 0 24 24" id="clipboard-list" xmlns="http://www.w3.org/2000/svg"><rect width="8" height="4" x="8" y="2" rx="1" ry="1"/><path d="M16 4h2a2 2 0 0 1 2 2v14a2 2 0 0 1-2 2H6a2 2 0 0 1-2-2V6a2 2 0 0 1 2-2h2M12 11h4M12 16h4M8 11h.01M8 16h.01"/></symbol><symbol class="aslucide aslucide-clipboard-paste" fill="none" stroke="currentColor" stroke-width="2" stroke-linecap="round" stroke-linejoin="round" viewBox="0 0 24 24" id="clipboard-paste" xmlns="http://www.w3.org/2000/svg"><path d="M11 14h10M16 4h2a2 2 0 0 1 2 2v1.344M17 18l4-4-4-4"/><path d="M8 4H6a2 2 0 0 0-2 2v14a2 2 0 0 0 2 2h12a2 2 0 0 0 1.793-1.113"/><rect x="8" y="2" width="8" height="4" rx="1"/></symbol><symbol class="atlucide atlucide-coffee" fill="none" stroke="currentColor" stroke-width="2" stroke-linecap="round" stroke-linejoin="round" viewBox="0 0 24 24" id="coffee" xmlns="http://www.w3.org/2000/svg"><path d="M10 2v2M14 2v2M16 8a1 1 0 0 1 1 1v8a4 4 0 0 1-4 4H7a4 4 0 0 1-4-4V9a1 1 0 0 1 1-1h14a4 4 0 1 1 0 8h-1M6 2v2"/></symbol><symbol class="aulucide aulucide-door-closed" fill="none" stroke="currentColor" stroke-width="2" stroke-linecap="round" stroke-linejoin="round" viewBox="0 0 24 24" id="door-closed" xmlns="http://www.w3.org/2000/svg"><path d="M10 12h.01M18 20V6a2 2 0 0 0-2-2H8a2 2 0 0 0-2 2v14M2 20h20"/></symbol><symbol class="avlucide avlucide-droplet-off" fill="none" stroke="currentColor" stroke-width="2" stroke-linecap="round" stroke-linejoin="round" viewBox="0 0 24 24" id="droplet-off" xmlns="http://www.w3.org/2000/svg"><path d="M18.715 13.186C18.29 11.858 17.384 10.607 16 9.5c-2-1.6-3.5-4-4-6.5a10.7 10.7 0 0 1-.884 2.586M2 2l20 20M8.795 8.797A11 11 0 0 1 8 9.5C6 11.1 5 13 5 15a7 7 0 0 0 13.222 3.208"/></symbol><symbol class="awlucide awlucide-droplets" fill="none" stroke="currentColor" stroke-width="2" stroke-linecap="round" stroke-linejoin="round" viewBox="0 0 24 24" id="droplets" xmlns="http://www.w3.org/2000/svg"><path d="M7 16.3c2.2 0 4-1.83 4-4.05 0-1.16-.57-2.26-1.71-3.19S7.29 6.75 7 5.3c-.29 1.45-1.14 2.84-2.29 3.76S3 11.1 3 12.25c0 2.22 1.8 4.05 4 4.05z"/><path d="M12.56 6.6A10.97 10.97 0 0 0 14 3.02c.5 2.5 2 4.9 4 6.5s3 3.5 3 5.5a6.98 6.98 0 0 1-11.91 4.97"/></symbol><symbol class="axlucide axlucide-ellipsis" fill="none" stroke="currentColor" stroke-width="2" stroke-linecap="round" stroke-linejoin="round" viewBox="0 0 24 24" id="ellipsis" xmlns="http://www.w3.org/2000/svg"><circle cx="12" cy="12" r="1"/><circle cx="19" cy="12" r="1"/><circle cx="5" cy="12" r="1"/></symbol><symbol class="aylucide aylucide-eraser" fill="none" stroke="currentColor" stroke-width="2" stroke-linecap="round" stroke-linejoin="round" viewBox="0 0 24 24" id="eraser" xmlns="http://www.w3.org/2000/svg"><path d="m7 21-4.3-4.3c-1-1-1-2.5 0-3.4l9.6-9.6c1-1 2.5-1 3.4 0l5.6 5.6c1 1 1 2.5 0 3.4L13 21M22 21H7M5 11l9 9"/></symbol><symbol class="azlucide azlucide-hammer" fill="none" stroke="currentColor" stroke-width="2" stroke-linecap="round" stroke-linejoin="round" viewBox="0 0 24 24" id="hammer" xmlns="http://www.w3.org/2000/svg"><path d="m15 12-8.373 8.373a1 1 0 1 1-3-3L12 9M18 15l4-4"/><path d="m21.5 11.5-1.914-1.914A2 2 0 0 1 19 8.172V7l-2.26-2.26a6 6 0 0 0-4.202-1.756L9 2.96l.92.82A6.18 6.18 0 0 1 12 8.4V10l2 2h1.172a2 2 0 0 1 1.414.586L18.5 14.5"/></symbol><symbol class="balucide balucide-house" fill="none" stroke="currentColor" stroke-width="2" stroke-linecap="round" stroke-linejoin="round" viewBox="0 0 24 24" id="house" xmlns="http://www.w3.org/2000/svg"><path d="M15 21v-8a1 1 0 0 0-1-1h-4a1 1 0 0 0-1 1v8"/><path d="M3 10a2 2 0 0 1 .709-1.528l7-6a2 2 0 0 1 2.582 0l7 6A2 2 0 0 1 21 10v9a2 2 0 0 1-2 2H5a2 2 0 0 1-2-2z"/></symbol><symbol class="bblucide bblucide-image-plus" fill="none" stroke="currentColor" stroke-width="2" stroke-linecap="round" stroke-linejoin="round" viewBox="0 0 24 24" id="image-plus" xmlns="http://www.w3.org/2000/svg"><path d="M16 5h6M19 2v6M21 11.5V19a2 2 0 0 1-2 2H5a2 2 0 0 1-2-2V5a2 2 0 0 1 2-2h7.5"/><path d="m21 15-3.086-3.086a2 2 0 0 0-2.828 0L6 21"/><circle cx="9" cy="9" r="2"/></symbol><symbol class="bclucide bclucide-inbox" fill="none" stroke="currentColor" stroke-width="2" stroke-linecap="round" stroke-linejoin="round" viewBox="0 0 24 24" id="inbox" xmlns="http://www.w3.org/2000/svg"><path d="M22 12h-6l-2 3h-4l-2-3H2"/><path d="M5.45 5.11 2 12v6a2 2 0 0 0 2 2h16a2 2 0 0 0 2-2v-6l-3.45-6.89A2 2 0 0 0 16.76 4H7.24a2 2 0 0 0-1.79 1.11z"/></symbol><symbol class="bdlucide bdlucide-info" fill="none" stroke="currentColor" stroke-width="2" stroke-linecap="round" stroke-linejoin="round" viewBox="0 0 24 24" id="info" xmlns="http://www.w3.org/2000/svg"><circle cx="12" cy="12" r="10"/><path d="M12 16v-4M12 8h.01"/></symbol><symbol class="belucide belucide-key-round" fill="none" stroke="currentColor" stroke-width="2" stroke-linecap="round" stroke-linejoin="round" viewBox="0 0 24 24" id="key-round" xmlns="http://www.w3.org/2000/svg"><path d="M2.586 17.414A2 2 0 0 0 2 18.828V21a1 1 0 0 0 1 1h3a1 1 0 0 0 1-1v-1a1 1 0 0 1 1-1h1a1 1 0 0 0 1-1v-1a1 1 0 0 1 1-1h.172a2 2 0 0 0 1.414-.586l.814-.814a6.5 6.5 0 1 0-4-4z"/><circle cx="16.5" cy="7.5" r=".5" fill="currentColor"/></symbol><symbol class="bflucide bflucide-list-checks" fill="none" stroke="currentColor" stroke-width="2" stroke-linecap="round" stroke-linejoin="round" viewBox="0 0 24 24" id="list-checks" xmlns="http://www.w3.org/2000/svg"><path d="M13 5h8M13 12h8M13 19h8M3 17l2 2 4-4M3 7l2 2 4-4"/></symbol><symbol class="bglucide bglucide-loader-circle" fill="none" stroke="currentColor" stroke-width="2" stroke-linecap="round" stroke-linejoin="round" viewBox="0 0 24 24" id="loader-circle" xmlns="http://www.w3.org/2000/svg"><path d="M21 12a9 9 0 1 1-6.219-8.56"/></symbol><symbol class="bhlucide bhlucide-map-pin" fill="none" stroke="currentColor" stroke-width="2" stroke-linecap="round" stroke-linejoin="round" viewBox="0 0 24 24" id="map-pin" xmlns="http://www.w3.org/2000/svg"><path d="M20 10c0 4.993-5.539 10.193-7.399 11.799a1 1 0 0 1-1.202 0C9.539 20.193 4 14.993 4 10a8 8 0 0 1 16 0"/><circle cx="12" cy="10" r="3"/></symbol><symbol class="bilucide bilucide-megaphone" fill="none" stroke="currentColor" stroke-width="2" stroke-linecap="round" stroke-linejoin="round" viewBox="0 0 24 24" id="megaphone" xmlns="http://www.w3.org/2000/svg"><path d="M11 6a13 13 0 0 0 8.4-2.8A1 1 0 0 1 21 4v12a1 1 0 0 1-1.6.8A13 13 0 0 0 11 14H5a2 2 0 0 1-2-2V8a2 2 0 0 1 2-2z"/><path d="M6 14a12 12 0 0 0 2.4 7.2 2 2 0 0 0 3.2-2.4A8 8 0 0 1 10 14M8 6v8"/></symbol><symbol class="bjlucide bjlucide-message-circle" fill="none" stroke="currentColor" stroke-width="2" stroke-linecap="round" stroke-linejoin="round" viewBox="0 0 24 24" id="message-circle" xmlns="http://www.w3.org/2000/svg"><path d="M2.992 16.342a2 2 0 0 1 .094 1.167l-1.065 3.29a1 1 0 0 0 1.236 1.168l3.413-.998a2 2 0 0 1 1.099.092 10 10 0 1 0-4.777-4.719"/></symbol><symbol class="bklucide bklucide-phone" fill="none" stroke="currentColor" stroke-width="2" stroke-linecap="round" stroke-linejoin="round" viewBox="0 0 24 24" id="phone" xmlns="http://www.w3.org/2000/svg"><path d="M13.832 16.568a1 1 0 0 0 1.213-.303l.355-.465A2 2 0 0 1 17 15h3a2 2 0 0 1 2 2v3a2 2 0 0 1-2 2A18 18 0 0 1 2 4a2 2 0 0 1 2-2h3a2 2 0 0 1 2 2v3a2 2 0 0 1-.8 1.6l-.468.351a1 1 0 0 0-.292 1.233 14 14 0 0 0 6.392 6.384"/></symbol><symbol class="bllucide bllucide-plus" fill="none" stroke="currentColor" stroke-width="2" stroke-linecap="round" stroke-linejoin="round" viewBox="0 0 24 24" id="plus" xmlns="http://www.w3.org/2000/svg"><path d="M5 12h14M12 5v14"/></symbol><symbol class="bmlucide bmlucide-refresh-cw" fill="none" stroke="currentColor" stroke-width="2" stroke-linecap="round" stroke-linejoin="round" viewBox="0 0 24 24" id="refresh-cw" xmlns="http://www.w3.org/2000/svg"><path d="M3 12a9 9 0 0 1 9-9 9.75 9.75 0 0 1 6.74 2.74L21 8"/><path d="M21 3v5h-5M21 12a9 9 0 0 1-9 9 9.75 9.75 0 0 1-6.74-2.74L3 16"/><path d="M8 16H3v5"/></symbol><symbol class="bnlucide bnlucide-search" fill="none" stroke="currentColor" stroke-width="2" stroke-linecap="round" stroke-linejoin="round" viewBox="0 0 24 24" id="search" xmlns="http://www.w3.org/2000/svg"><path d="m21 21-4.34-4.34"/><circle cx="11" cy="11" r="8"/></symbol><symbol class="bolucide bolucide-send-horizontal" fill="none" stroke="currentColor" stroke-width="2" stroke-linecap="round" stroke-linejoin="round" viewBox="0 0 24 24" id="send-horizontal" xmlns="http://www.w3.org/2000/svg"><path d="M3.714 3.048a.498.498 0 0 0-.683.627l2.843 7.627a2 2 0 0 1 0 1.396l-2.842 7.627a.498.498 0 0 0 .682.627l18-8.5a.5.5 0 0 0 0-.904zM6 12h16"/></symbol><symbol class="bplucide bplucide-settings" fill="none" stroke="currentColor" stroke-width="2" stroke-linecap="round" stroke-linejoin="round" viewBox="0 0 24 24" id="settings" xmlns="http://www.w3.org/2000/svg"><path d="M9.671 4.136a2.34 2.34 0 0 1 4.659 0 2.34 2.34 0 0 0 3.319 1.915 2.34 2.34 0 0 1 2.33 4.033 2.34 2.34 0 0 0 0 3.831 2.34 2.34 0 0 1-2.33 4.033 2.34 2.34 0 0 0-3.319 1.915 2.34 2.34 0 0 1-4.659 0 2.34 2.34 0 0 0-3.32-1.915 2.34 2.34 0 0 1-2.33-4.033 2.34 2.34 0 0 0 0-3.831A2.34 2.34 0 0 1 6.35 6.051a2.34 2.34 0 0 0 3.319-1.915"/><circle cx="12" cy="12" r="3"/></symbol><symbol class="bqlucide bqlucide-shield" fill="none" stroke="currentColor" stroke-width="2" stroke-linecap="round" stroke-linejoin="round" viewBox="0 0 24 24" id="shield" xmlns="http://www.w3.org/2000/svg"><path d="M20 13c0 5-3.5 7.5-7.66 8.95a1 1 0 0 1-.67-.01C7.5 20.5 4 18 4 13V6a1 1 0 0 1 1-1c2 0 4.5-1.2 6.24-2.72a1.17 1.17 0 0 1 1.52 0C14.51 3.81 17 5 19 5a1 1 0 0 1 1 1z"/></symbol><symbol class="brlucide brlucide-shield-check" fill="none" stroke="currentColor" stroke-width="2" stroke-linecap="round" stroke-linejoin="round" viewBox="0 0 24 24" id="shield-check" xmlns="http://www.w3.org/2000/svg"><path d="M20 13c0 5-3.5 7.5-7.66 8.95a1 1 0 0 1-.67-.01C7.5 20.5 4 18 4 13V6a1 1 0 0 1 1-1c2 0 4.5-1.2 6.24-2.72a1.17 1.17 0 0 1 1.52 0C14.51 3.81 17 5 19 5a1 1 0 0 1 1 1z"/><path d="m9 12 2 2 4-4"/></symbol><symbol class="bslucide bslucide-shopping-bag" fill="none" stroke="currentColor" stroke-width="2" stroke-linecap="round" stroke-linejoin="round" viewBox="0 0 24 24" id="shopping-bag" xmlns="http://www.w3.org/2000/svg"><path d="M6 2 3 6v14a2 2 0 0 0 2 2h14a2 2 0 0 0 2-2V6l-3-4ZM3 6h18"/><path d="M16 10a4 4 0 0 1-8 0"/></symbol><symbol class="btlucide btlucide-square-pen" fill="none" stroke="currentColor" stroke-width="2" stroke-linecap="round" stroke-linejoin="round" viewBox="0 0 24 24" id="square-pen" xmlns="http://www.w3.org/2000/svg"><path d="M12 3H5a2 2 0 0 0-2 2v14a2 2 0 0 0 2 2h14a2 2 0 0 0 2-2v-7"/><path d="M18.375 2.625a1 1 0 0 1 3 3l-9.013 9.014a2 2 0 0 1-.853.505l-2.873.84a.5.5 0 0 1-.62-.62l.84-2.873a2 2 0 0 1 .506-.852z"/></symbol><symbol class="bulucide bulucide-thumbs-down" fill="none" stroke="currentColor" stroke-width="2" stroke-linecap="round" stroke-linejoin="round" viewBox="0 0 24 24" id="thumbs-down" xmlns="http://www.w3.org/2000/svg"><path d="M17 14V2M9 18.12 10 14H4.17a2 2 0 0 1-1.92-2.56l2.33-8A2 2 0 0 1 6.5 2H20a2 2 0 0 1 2 2v8a2 2 0 0 1-2 2h-2.76a2 2 0 0 0-1.79 1.11L12 22a3.13 3.13 0 0 1-3-3.88Z"/></symbol><symbol class="bvlucide bvlucide-thumbs-up" fill="none" stroke="currentColor" stroke-width="2" stroke-linecap="round" stroke-linejoin="round" viewBox="0 0 24 24" id="thumbs-up" xmlns="http://www.w3.org/2000/svg"><path d="M7 10v12M15 5.88 14 10h5.83a2 2 0 0 1 1.92 2.56l-2.33 8A2 2 0 0 1 17.5 22H4a2 2 0 0 1-2-2v-8a2 2 0 0 1 2-2h2.76a2 2 0 0 0 1.79-1.11L12 2a3.13 3.13 0 0 1 3 3.88Z"/></symbol><symbol class="bwlucide bwlucide-trash-2" fill="none" stroke="currentColor" stroke-width="2" stroke-linecap="round" stroke-linejoin="round" viewBox="0 0 24 24" id="trash-2" xmlns="http://www.w3.org/2000/svg"><path d="M3 6h18M19 6v14c0 1-1 2-2 2H7c-1 0-2-1-2-2V6M8 6V4c0-1 1-2 2-2h4c1 0 2 1 2 2v2M10 11v6M14 11v6"/></symbol><symbol class="bxlucide bxlucide-triangle-alert" fill="none" stroke="currentColor" stroke-width="2" stroke-linecap="round" stroke-linejoin="round" viewBox="0 0 24 24" id="triangle-alert" xmlns="http://www.w3.org/2000/svg"><path d="m21.73 18-8-14a2 2 0 0 0-3.48 0l-8 14A2 2 0 0 0 4 21h16a2 2 0 0 0 1.73-3M12 9v4M12 17h.01"/></symbol><symbol class="bylucide bylucide-user" fill="none" stroke="currentColor" stroke-width="2" stroke-linecap="round" stroke-linejoin="round" viewBox="0 0 24 24" id="user" xmlns="http://www.w3.org/2000/svg"><path d="M19 21v-2a4 4 0 0 0-4-4H9a4 4 0 0 0-4 4v2"/><circle cx="12" cy="7" r="4"/></symbol><symbol class="bzlucide bzlucide-user-round" fill="none" stroke="currentColor" stroke-width="2" stroke-linecap="round" stroke-linejoin="round" viewBox="0 0 24 24" id="user-round" xmlns="http://www.w3.org/2000/svg"><circle cx="12" cy="8" r="5"/><path d="M20 21a8 8 0 0 0-16 0"/></symbol><symbol class="calucide calucide-users-round" fill="none" stroke="currentColor" stroke-width="2" stroke-linecap="round" stroke-linejoin="round" viewBox="0 0 24 24" id="users-round" xmlns="http://www.w3.org/2000/svg"><path d="M18 21a8 8 0 0 0-16 0"/><circle cx="10" cy="8" r="5"/><path d="M22 20c0-3.37-2-6.5-4-8a5 5 0 0 0-.45-8.3"/></symbol><symbol class="cblucide cblucide-wrench" fill="none" stroke="currentColor" stroke-width="2" stroke-linecap="round" stroke-linejoin="round" viewBox="0 0 24 24" id="wrench" xmlns="http://www.w3.org/2000/svg"><path d="M14.7 6.3a1 1 0 0 0 0 1.4l1.6 1.6a1 1 0 0 0 1.4 0l3.77-3.77a6 6 0 0 1-7.94 7.94l-6.91 6.91a2.12 2.12 0 0 1-3-3l6.91-6.91a6 6 0 0 1 7.94-7.94l-3.76 3.76z"/></symbol><symbol class="cclucide cclucide-x" fill="none" stroke="currentColor" stroke-width="2" stroke-linecap="round" stroke-linejoin="round" viewBox="0 0 24 24" id="x" xmlns="http://www.w3.org/2000/svg"><path d="M18 6 6 18M6 6l12 12"/></symbol><symbol class="cdlucide cdlucide-zap" fill="none" stroke="currentColor" stroke-width="2" stroke-linecap="round" stroke-linejoin="round" viewBox="0 0 24 24" id="zap" xmlns="http://www.w3.org/2000/svg"><path d="M4 14a1 1 0 0 1-.78-1.63l9.9-10.2a.5.5 0 0 1 .86.46l-1.92 6.02A1 1 0 0 0 13 10h7a1 1 0 0 1 .78 1.63l-9.9 10.2a.5.5 0 0 1-.86-.46l1.92-6.02A1 1 0 0 0 11 14z"/></symbol></svg>